<?xml version="1.0" encoding="utf-8"?>
<!-- Generator: Adobe Illustrator 26.0.2, SVG Export Plug-In . SVG Version: 6.00 Build 0)  -->
<svg version="1.1" id="Layer_1" xmlns="http://www.w3.org/2000/svg" xmlns:xlink="http://www.w3.org/1999/xlink" x="0px" y="0px"
	 viewBox="0 0 500 500" style="enable-background:new 0 0 500 500;" xml:space="preserve">
<style type="text/css">
	.st0{fill:#FF4500;}
	.st1{fill:#FFFFFF;}
</style>
<circle id="circle8" class="st0" cx="250.28" cy="249.72" r="249.72">
</circle>
<path id="path10" class="st1" d="M416.86,249.72c0.08-20.08-16.13-36.42-36.21-36.5c-9.51-0.04-18.65,3.65-25.47,10.28
	c-25.03-17.88-59.3-29.5-97.45-30.99l16.69-78.08l54.24,11.62c0.55,14.31,12.59,25.46,26.9,24.91c14.31-0.55,25.46-12.59,24.91-26.9
	s-12.59-25.46-26.9-24.91c-9.48,0.36-18.01,5.88-22.23,14.38l-60.49-12.81c-1.79-0.3-3.58,0-4.77,0.89
	c-1.46,0.93-2.44,2.46-2.68,4.17l-18.48,87.02c-38.74,1.19-73.61,12.81-98.94,30.99c-14.47-13.93-37.48-13.49-51.41,0.98
	c-13.93,14.47-13.49,37.48,0.98,51.41c2.98,2.87,6.43,5.21,10.2,6.92c-0.6,3.58-0.89,7.15-0.89,11.03
	c0,56.02,65.26,101.62,145.72,101.62s145.72-45.3,145.72-101.62c0-3.69-0.3-7.38-0.89-11.03
	C407.92,277.44,416.86,264.62,416.86,249.72L416.86,249.72z M167.14,275.65c-0.01-14.32,11.59-25.94,25.91-25.95
	c14.32-0.01,25.94,11.59,25.95,25.91c0,0.01,0,0.03,0,0.04c0,14.32-11.61,25.93-25.93,25.93
	C178.74,301.57,167.14,289.97,167.14,275.65z M312.26,344.49c-17.88,17.88-51.85,19.07-61.69,19.07c-10.13,0-44.1-1.49-61.69-19.07
	c-2.68-2.68-2.68-6.85,0-9.54s6.85-2.68,9.54,0c11.32,11.32,35.16,15.2,52.15,15.2c16.99,0,41.12-3.87,52.15-15.2
	c2.68-2.68,6.85-2.68,9.54,0C314.64,337.63,314.64,341.8,312.26,344.49z M307.49,301.87c-14.32,0.01-25.94-11.59-25.95-25.91
	c-0.01-14.32,11.59-25.94,25.91-25.95c0.01,0,0.03,0,0.04,0c14.32,0.01,25.92,11.63,25.91,25.95
	C333.39,290.27,321.8,301.86,307.49,301.87z"/>
</svg>
