<?xml version="1.0" encoding="utf-8"?>
<!-- Generator: Adobe Illustrator 26.0.2, SVG Export Plug-In . SVG Version: 6.00 Build 0)  -->
<svg version="1.1" id="Layer_1" xmlns="http://www.w3.org/2000/svg" xmlns:xlink="http://www.w3.org/1999/xlink" x="0px" y="0px"
	 viewBox="0 0 800 275" style="enable-background:new 0 0 800 275;" xml:space="preserve">
<style type="text/css">
	.st0{fill:#FF4500;}
	.st1{fill:#222222;}
	.st2{fill:#FFFFFF;}
</style>
<circle id="circle4" class="st0" cx="720.16" cy="94.78" r="17.3">
</circle>
<path id="path6" class="st1" d="M473.03,168.56c8.49,0,13.38-6.37,13.06-12.57c-0.16-3.26-0.49-5.39-0.82-7.02
	c-5.22-22.53-23.5-39.17-45.21-39.17c-25.79,0-46.68,23.34-46.68,52.07s20.89,52.07,46.68,52.07c16.16,0,27.75-5.88,36.07-15.18
	c4.08-4.57,3.26-11.59-1.63-15.02c-4.08-2.77-9.14-1.8-12.89,1.31c-3.59,3.1-10.45,9.3-21.55,9.3c-13.06,0-24.16-11.26-26.61-26.12
	h59.58V168.56z M439.9,129.54c11.75,0,21.87,9.14,25.63,21.71h-51.25C418.02,138.52,428.14,129.54,439.9,129.54z M394.36,120.08
	c0-4.73-3.43-8.81-8.16-9.63c-13.22-2.29-26.61,2.61-35.26,12.73v-1.31c0-6.04-4.9-9.79-9.79-9.79c-5.39,0-9.79,4.41-9.79,9.79
	v79.98c0,5.22,3.92,9.79,9.14,10.12c5.39,0.33,10.12-3.75,10.45-9.14c0-0.16,0-0.49,0-0.65v-41.3c0-18.28,13.71-33.3,32.65-31.18
	h1.96C390.44,129.38,394.36,125.14,394.36,120.08L394.36,120.08z M729.95,130.52c0-5.39-4.41-9.79-9.79-9.79s-9.79,4.41-9.79,9.79
	v71.66c0,5.39,4.41,9.79,9.79,9.79s9.79-4.41,9.79-9.79V130.52L729.95,130.52z M584.35,76.33c0-5.39-4.41-9.79-9.79-9.79
	s-9.79,4.41-9.79,9.79v43.58c-6.53-6.69-15.67-10.28-24.97-9.96c-25.79,0-46.68,23.34-46.68,52.07S514,214.1,539.79,214.1
	c9.47,0.16,18.44-3.43,25.14-10.12c0.98,5.39,6.04,8.81,11.43,7.83c4.57-0.82,8-4.9,8-9.63C584.35,202.18,584.35,76.33,584.35,76.33
	z M539.95,194.67c-15.02,0-27.1-14.53-27.1-32.65c0-17.95,12.08-32.65,27.1-32.65s27.1,14.53,27.1,32.65
	S554.81,194.67,539.95,194.67z M686.53,76.33c0-5.39-4.41-9.79-9.79-9.79s-9.79,4.41-9.79,9.79v43.58
	c-6.53-6.69-15.67-10.28-24.97-9.96c-25.79,0-46.68,23.34-46.68,52.07s20.89,52.07,46.68,52.07c9.47,0.16,18.44-3.43,25.14-10.12
	c0.98,5.39,6.04,8.81,11.43,7.83c4.57-0.82,8-4.9,8-9.63C686.53,202.18,686.53,76.33,686.53,76.33z M641.97,194.67
	c-15.02,0-27.1-14.53-27.1-32.65c0-17.95,12.08-32.65,27.1-32.65s27.1,14.53,27.1,32.65S656.99,194.67,641.97,194.67z
	 M779.57,202.34v-72.8h8.65c4.57,0,8.65-3.43,8.98-8.16c0.33-4.9-3.43-8.98-8.32-9.3c-0.16,0-0.16,0-0.33,0h-8.98V98.37
	c0-5.22-3.92-9.79-9.14-10.12c-5.39-0.33-10.12,3.75-10.45,9.14c0,0.16,0,0.49,0,0.65v14.2h-8.16c-4.73,0-8.49,3.59-8.98,8.16
	c-0.33,4.9,3.43,8.98,8.32,9.3c0.16,0,0.16,0,0.33,0h8.32v72.8c0,5.39,4.41,9.79,9.79,9.79
	C775.33,211.97,779.57,207.73,779.57,202.34L779.57,202.34z"/>
<circle id="circle8" class="st0" cx="139.72" cy="137.38" r="136.78">
</circle>
<path id="path10" class="st2" d="M230.96,137.38c0-10.94-8.81-19.91-19.91-19.91c-5.22,0-10.28,1.96-13.87,5.55
	c-13.71-9.79-32.48-16.16-53.38-16.98l9.14-42.77l29.71,6.37c0.33,7.83,6.86,13.87,14.69,13.71c7.83-0.33,13.87-6.86,13.71-14.69
	c-0.16-7.83-6.86-13.87-14.69-13.71c-5.22,0.16-9.79,3.26-12.24,7.83l-33.14-7.02c-0.98-0.16-1.96,0-2.61,0.49
	c-0.82,0.49-1.31,1.31-1.47,2.29l-10.12,47.66c-21.22,0.65-40.32,7.02-54.19,16.98c-8-7.67-20.57-7.35-28.24,0.49
	c-7.67,8-7.35,20.57,0.49,28.24c1.63,1.63,3.59,2.77,5.55,3.75c-0.33,1.96-0.49,3.92-0.49,6.04c0,30.69,35.75,55.66,79.82,55.66
	s79.82-24.81,79.82-55.66c0-1.96-0.16-4.08-0.49-6.04C226.07,152.56,230.96,145.54,230.96,137.38L230.96,137.38z M94.18,151.58
	c0-7.83,6.37-14.2,14.2-14.2c7.83,0,14.2,6.37,14.2,14.2l0,0c0,7.83-6.37,14.2-14.2,14.2C100.55,165.78,94.18,159.42,94.18,151.58z
	 M173.67,189.29c-9.79,9.79-28.4,10.45-33.79,10.45c-5.55,0-24.16-0.82-33.79-10.45c-1.47-1.47-1.47-3.75,0-5.22
	c1.47-1.47,3.75-1.47,5.22,0c6.2,6.2,19.26,8.32,28.56,8.32s22.53-2.12,28.56-8.32c1.47-1.47,3.75-1.47,5.22,0
	C174.98,185.53,174.98,187.82,173.67,189.29z M171.06,165.94c-7.83,0-14.2-6.37-14.2-14.2c0-7.83,6.37-14.2,14.2-14.2l0,0
	c7.83,0,14.2,6.37,14.2,14.2C185.26,159.58,178.9,165.94,171.06,165.94z"/>
</svg>
